<?xml version="1.0" encoding="us-ascii" standalone="no"?><svg xmlns="http://www.w3.org/2000/svg" xmlns:xlink="http://www.w3.org/1999/xlink" contentStyleType="text/css" height="693px" preserveAspectRatio="none" style="width:465px;height:693px;background:#FDFDFD;" version="1.1" viewBox="0 0 465 693" width="465px" zoomAndPan="magnify"><defs/><g><rect fill="#FDFDFD" height="693" style="stroke:none;stroke-width:1.0;" width="465" x="0" y="0"/><line style="stroke:#181818;stroke-width:0.5;stroke-dasharray:5.0,5.0;" x1="31" x2="31" y1="39.0679" y2="655.4822"/><line style="stroke:#181818;stroke-width:0.5;stroke-dasharray:5.0,5.0;" x1="292" x2="292" y1="39.0679" y2="655.4822"/><rect fill="#98FB98" height="33.0679" rx="2.5" ry="2.5" style="stroke:#181818;stroke-width:0.5;" width="53" x="5" y="5"/><text fill="#000000" font-family="sans-serif" font-size="14" lengthAdjust="spacing" textLength="39" x="12" y="26.9659">Client</text><rect fill="#98FB98" height="33.0679" rx="2.5" ry="2.5" style="stroke:#181818;stroke-width:0.5;" width="53" x="5" y="654.4822"/><text fill="#000000" font-family="sans-serif" font-size="14" lengthAdjust="spacing" textLength="39" x="12" y="676.4482">Client</text><rect fill="#98FB98" height="33.0679" rx="2.5" ry="2.5" style="stroke:#181818;stroke-width:0.5;" width="57" x="264" y="5"/><text fill="#000000" font-family="sans-serif" font-size="14" lengthAdjust="spacing" textLength="43" x="271" y="26.9659">Server</text><rect fill="#98FB98" height="33.0679" rx="2.5" ry="2.5" style="stroke:#181818;stroke-width:0.5;" width="57" x="264" y="654.4822"/><text fill="#000000" font-family="sans-serif" font-size="14" lengthAdjust="spacing" textLength="43" x="271" y="676.4482">Server</text><rect fill="#EEEEEE" height="3" style="stroke:#EEEEEE;stroke-width:1.0;" width="458.5" x="0" y="70.9209"/><line style="stroke:#000000;stroke-width:1.0;" x1="0" x2="458.5" y1="70.9209" y2="70.9209"/><line style="stroke:#000000;stroke-width:1.0;" x1="0" x2="458.5" y1="73.9209" y2="73.9209"/><rect fill="#EEEEEE" height="25.706" style="stroke:#000000;stroke-width:2.0;" width="143" x="157.75" y="59.0679"/><text fill="#000000" font-family="sans-serif" font-size="13" font-weight="bold" lengthAdjust="spacing" textLength="126" x="163.75" y="76.9649">Handshake Process</text><polygon fill="#181818" points="280.5,132.186,290.5,136.186,280.5,140.186,284.5,136.186" style="stroke:#181818;stroke-width:1.0;"/><line style="stroke:#181818;stroke-width:1.0;" x1="31.5" x2="286.5" y1="136.186" y2="136.186"/><text fill="#000000" font-family="sans-serif" font-size="13" lengthAdjust="spacing" textLength="65" x="38.5" y="112.6709">ClientHello</text><text fill="#000000" font-family="sans-serif" font-size="13" lengthAdjust="spacing" textLength="53" x="38.5" y="130.377">(pubkey)</text><line style="stroke:#181818;stroke-width:1.0;" x1="292.5" x2="334.5" y1="185.598" y2="185.598"/><line style="stroke:#181818;stroke-width:1.0;" x1="334.5" x2="334.5" y1="185.598" y2="198.598"/><line style="stroke:#181818;stroke-width:1.0;" x1="293.5" x2="334.5" y1="198.598" y2="198.598"/><polygon fill="#181818" points="303.5,194.598,293.5,198.598,303.5,202.598,299.5,198.598" style="stroke:#181818;stroke-width:1.0;"/><text fill="#000000" font-family="sans-serif" font-size="13" lengthAdjust="spacing" textLength="122" x="299.5" y="162.083">Calculate shared key</text><text fill="#000000" font-family="sans-serif" font-size="13" lengthAdjust="spacing" textLength="42" x="299.5" y="179.789">(ECDH)</text><line style="stroke:#181818;stroke-width:1.0;" x1="292.5" x2="334.5" y1="230.304" y2="230.304"/><line style="stroke:#181818;stroke-width:1.0;" x1="334.5" x2="334.5" y1="230.304" y2="243.304"/><line style="stroke:#181818;stroke-width:1.0;" x1="293.5" x2="334.5" y1="243.304" y2="243.304"/><polygon fill="#181818" points="303.5,239.304,293.5,243.304,303.5,247.304,299.5,243.304" style="stroke:#181818;stroke-width:1.0;"/><text fill="#000000" font-family="sans-serif" font-size="13" lengthAdjust="spacing" textLength="142" x="299.5" y="224.495">Generate session nonce</text><polygon fill="#181818" points="42.5,288.716,32.5,292.716,42.5,296.716,38.5,292.716" style="stroke:#181818;stroke-width:1.0;"/><line style="stroke:#181818;stroke-width:1.0;" x1="36.5" x2="291.5" y1="292.716" y2="292.716"/><text fill="#000000" font-family="sans-serif" font-size="13" lengthAdjust="spacing" textLength="69" x="48.5" y="269.201">ServerHello</text><text fill="#000000" font-family="sans-serif" font-size="13" lengthAdjust="spacing" textLength="143" x="48.5" y="286.907">(pubkey, session nonce)</text><line style="stroke:#181818;stroke-width:1.0;" x1="31.5" x2="73.5" y1="342.1281" y2="342.1281"/><line style="stroke:#181818;stroke-width:1.0;" x1="73.5" x2="73.5" y1="342.1281" y2="355.1281"/><line style="stroke:#181818;stroke-width:1.0;" x1="32.5" x2="73.5" y1="355.1281" y2="355.1281"/><polygon fill="#181818" points="42.5,351.1281,32.5,355.1281,42.5,359.1281,38.5,355.1281" style="stroke:#181818;stroke-width:1.0;"/><text fill="#000000" font-family="sans-serif" font-size="13" lengthAdjust="spacing" textLength="122" x="38.5" y="318.6131">Calculate shared key</text><text fill="#000000" font-family="sans-serif" font-size="13" lengthAdjust="spacing" textLength="42" x="38.5" y="336.3191">(ECDH)</text><polygon fill="#181818" points="280.5,400.5401,290.5,404.5401,280.5,408.5401,284.5,404.5401" style="stroke:#181818;stroke-width:1.0;"/><line style="stroke:#181818;stroke-width:1.0;" x1="31.5" x2="286.5" y1="404.5401" y2="404.5401"/><text fill="#000000" font-family="sans-serif" font-size="13" lengthAdjust="spacing" textLength="151" x="38.5" y="381.0251">ClientChallengeResponse</text><text fill="#000000" font-family="sans-serif" font-size="13" lengthAdjust="spacing" textLength="109" x="38.5" y="398.7311">(resp, sign of resp)</text><line style="stroke:#181818;stroke-width:1.0;" x1="292.5" x2="334.5" y1="436.2461" y2="436.2461"/><line style="stroke:#181818;stroke-width:1.0;" x1="334.5" x2="334.5" y1="436.2461" y2="449.2461"/><line style="stroke:#181818;stroke-width:1.0;" x1="293.5" x2="334.5" y1="449.2461" y2="449.2461"/><polygon fill="#181818" points="303.5,445.2461,293.5,449.2461,303.5,453.2461,299.5,449.2461" style="stroke:#181818;stroke-width:1.0;"/><text fill="#000000" font-family="sans-serif" font-size="13" lengthAdjust="spacing" textLength="152" x="299.5" y="430.4371">Verify challenge response</text><polygon fill="#181818" points="42.5,494.6582,32.5,498.6582,42.5,502.6582,38.5,498.6582" style="stroke:#181818;stroke-width:1.0;"/><line style="stroke:#181818;stroke-width:1.0;stroke-dasharray:2.0,2.0;" x1="36.5" x2="291.5" y1="498.6582" y2="498.6582"/><text fill="#000000" font-family="sans-serif" font-size="13" lengthAdjust="spacing" textLength="114" x="48.5" y="475.1431">EncryptedMessage</text><text fill="#000000" font-family="sans-serif" font-size="13" lengthAdjust="spacing" textLength="190" x="48.5" y="492.8492">(seq number, nonce, ciphertext)</text><line style="stroke:#181818;stroke-width:1.0;" x1="31.5" x2="73.5" y1="530.3642" y2="530.3642"/><line style="stroke:#181818;stroke-width:1.0;" x1="73.5" x2="73.5" y1="530.3642" y2="543.3642"/><line style="stroke:#181818;stroke-width:1.0;" x1="32.5" x2="73.5" y1="543.3642" y2="543.3642"/><polygon fill="#181818" points="42.5,539.3642,32.5,543.3642,42.5,547.3642,38.5,543.3642" style="stroke:#181818;stroke-width:1.0;"/><text fill="#000000" font-family="sans-serif" font-size="13" lengthAdjust="spacing" textLength="143" x="38.5" y="524.5552">Decrypt "ping" message</text><polygon fill="#181818" points="280.5,588.7762,290.5,592.7762,280.5,596.7762,284.5,592.7762" style="stroke:#181818;stroke-width:1.0;"/><line style="stroke:#181818;stroke-width:1.0;stroke-dasharray:2.0,2.0;" x1="31.5" x2="286.5" y1="592.7762" y2="592.7762"/><text fill="#000000" font-family="sans-serif" font-size="13" lengthAdjust="spacing" textLength="114" x="38.5" y="569.2612">EncryptedMessage</text><text fill="#000000" font-family="sans-serif" font-size="13" lengthAdjust="spacing" textLength="237" x="38.5" y="586.9672">(seq number, session nonce, ciphertext)</text><line style="stroke:#181818;stroke-width:1.0;" x1="292.5" x2="334.5" y1="624.4822" y2="624.4822"/><line style="stroke:#181818;stroke-width:1.0;" x1="334.5" x2="334.5" y1="624.4822" y2="637.4822"/><line style="stroke:#181818;stroke-width:1.0;" x1="293.5" x2="334.5" y1="637.4822" y2="637.4822"/><polygon fill="#181818" points="303.5,633.4822,293.5,637.4822,303.5,641.4822,299.5,637.4822" style="stroke:#181818;stroke-width:1.0;"/><text fill="#000000" font-family="sans-serif" font-size="13" lengthAdjust="spacing" textLength="148" x="299.5" y="618.6732">Decrypt "pong" message</text><!--SRC=[XP5FJuD04CNl-oacUB49Ve4cU11gUp5fDF7aPRjCOSDs5cV1I8pVtULFwwArXWI6xE-zDmzSfQcMB0-mawegsBQKfzPOXglxhB-4En7-tcYbQqaDV0Y0kn-AhJIuPaGIdqA4S6eq-eTq48rZD3j-Gdv37ex7CH8YIM0ZANUbh12sR1Kw1qaYnEHrSpl9bfFx1esnBtHTjxiAkuMOJ4DE6jKQsI1uLyOSFES5gpJRdCFNICW3xQEr9I1B2WDmp5rEWdb-F5SjWhMFielh_DKoBQKnI0K-egijEVGAzgFFqmM1tKF_TgxECxBUTw2E1WFOEvpOOBSLAUxg1lC7tq8MVOh3Lw3si4EEnqun-DzN8ZVutfphb-7W0L6jgOZWC3gTm62rVz9cNtAU-hlcTweDKxy0]--></g></svg>
