<?xml version="1.0" encoding="us-ascii" standalone="no"?><svg xmlns="http://www.w3.org/2000/svg" xmlns:xlink="http://www.w3.org/1999/xlink" contentStyleType="text/css" height="433px" preserveAspectRatio="none" style="width:413px;height:433px;background:#FDFDFD;" version="1.1" viewBox="0 0 413 433" width="413px" zoomAndPan="magnify"><defs/><g><rect fill="#FDFDFD" height="433" style="stroke:none;stroke-width:1.0;" width="413" x="0" y="0"/><line style="stroke:#181818;stroke-width:0.5;stroke-dasharray:5.0,5.0;" x1="33" x2="33" y1="39.0679" y2="395.4221"/><line style="stroke:#181818;stroke-width:0.5;stroke-dasharray:5.0,5.0;" x1="247" x2="247" y1="39.0679" y2="395.4221"/><rect fill="#ADD8E6" height="33.0679" rx="2.5" ry="2.5" style="stroke:#181818;stroke-width:0.5;" width="57" x="5" y="5"/><text fill="#000000" font-family="sans-serif" font-size="14" lengthAdjust="spacing" textLength="43" x="12" y="26.9659">Origin</text><rect fill="#ADD8E6" height="33.0679" rx="2.5" ry="2.5" style="stroke:#181818;stroke-width:0.5;" width="57" x="5" y="394.4221"/><text fill="#000000" font-family="sans-serif" font-size="14" lengthAdjust="spacing" textLength="43" x="12" y="416.388">Origin</text><rect fill="#ADD8E6" height="33.0679" rx="2.5" ry="2.5" style="stroke:#181818;stroke-width:0.5;" width="65" x="215" y="5"/><text fill="#000000" font-family="sans-serif" font-size="14" lengthAdjust="spacing" textLength="51" x="222" y="26.9659">Remote</text><rect fill="#ADD8E6" height="33.0679" rx="2.5" ry="2.5" style="stroke:#181818;stroke-width:0.5;" width="65" x="215" y="394.4221"/><text fill="#000000" font-family="sans-serif" font-size="14" lengthAdjust="spacing" textLength="51" x="222" y="416.388">Remote</text><rect fill="#EEEEEE" height="3" style="stroke:#EEEEEE;stroke-width:1.0;" width="406.5" x="0" y="70.9209"/><line style="stroke:#000000;stroke-width:1.0;" x1="0" x2="406.5" y1="70.9209" y2="70.9209"/><line style="stroke:#000000;stroke-width:1.0;" x1="0" x2="406.5" y1="73.9209" y2="73.9209"/><rect fill="#EEEEEE" height="25.706" style="stroke:#000000;stroke-width:2.0;" width="139" x="133.75" y="59.0679"/><text fill="#000000" font-family="sans-serif" font-size="13" font-weight="bold" lengthAdjust="spacing" textLength="122" x="139.75" y="76.9649">Data Transmission</text><line style="stroke:#181818;stroke-width:1.0;" x1="33.5" x2="75.5" y1="118.4799" y2="118.4799"/><line style="stroke:#181818;stroke-width:1.0;" x1="75.5" x2="75.5" y1="118.4799" y2="131.4799"/><line style="stroke:#181818;stroke-width:1.0;" x1="34.5" x2="75.5" y1="131.4799" y2="131.4799"/><polygon fill="#181818" points="44.5,127.4799,34.5,131.4799,44.5,135.4799,40.5,131.4799" style="stroke:#181818;stroke-width:1.0;"/><text fill="#000000" font-family="sans-serif" font-size="13" lengthAdjust="spacing" textLength="146" x="40.5" y="112.6709">Generate random nonce</text><line style="stroke:#181818;stroke-width:1.0;" x1="33.5" x2="75.5" y1="180.892" y2="180.892"/><line style="stroke:#181818;stroke-width:1.0;" x1="75.5" x2="75.5" y1="180.892" y2="193.892"/><line style="stroke:#181818;stroke-width:1.0;" x1="34.5" x2="75.5" y1="193.892" y2="193.892"/><polygon fill="#181818" points="44.5,189.892,34.5,193.892,44.5,197.892,40.5,193.892" style="stroke:#181818;stroke-width:1.0;"/><text fill="#000000" font-family="sans-serif" font-size="13" lengthAdjust="spacing" textLength="76" x="40.5" y="157.377">Encrypt data</text><text fill="#000000" font-family="sans-serif" font-size="13" lengthAdjust="spacing" textLength="126" x="40.5" y="175.083">(ChaCha20-Poly1305)</text><line style="stroke:#181818;stroke-width:1.0;" x1="33.5" x2="75.5" y1="225.598" y2="225.598"/><line style="stroke:#181818;stroke-width:1.0;" x1="75.5" x2="75.5" y1="225.598" y2="238.598"/><line style="stroke:#181818;stroke-width:1.0;" x1="34.5" x2="75.5" y1="238.598" y2="238.598"/><polygon fill="#181818" points="44.5,234.598,34.5,238.598,44.5,242.598,40.5,238.598" style="stroke:#181818;stroke-width:1.0;"/><text fill="#000000" font-family="sans-serif" font-size="13" lengthAdjust="spacing" textLength="173" x="40.5" y="219.789">Increment sequence number</text><polygon fill="#181818" points="235.5,284.01,245.5,288.01,235.5,292.01,239.5,288.01" style="stroke:#181818;stroke-width:1.0;"/><line style="stroke:#181818;stroke-width:1.0;stroke-dasharray:2.0,2.0;" x1="33.5" x2="241.5" y1="288.01" y2="288.01"/><text fill="#000000" font-family="sans-serif" font-size="13" lengthAdjust="spacing" textLength="114" x="40.5" y="264.495">EncryptedMessage</text><text fill="#000000" font-family="sans-serif" font-size="13" lengthAdjust="spacing" textLength="190" x="40.5" y="282.201">(seq number, nonce, ciphertext)</text><line style="stroke:#181818;stroke-width:1.0;" x1="247.5" x2="289.5" y1="319.716" y2="319.716"/><line style="stroke:#181818;stroke-width:1.0;" x1="289.5" x2="289.5" y1="319.716" y2="332.716"/><line style="stroke:#181818;stroke-width:1.0;" x1="248.5" x2="289.5" y1="332.716" y2="332.716"/><polygon fill="#181818" points="258.5,328.716,248.5,332.716,258.5,336.716,254.5,332.716" style="stroke:#181818;stroke-width:1.0;"/><text fill="#000000" font-family="sans-serif" font-size="13" lengthAdjust="spacing" textLength="103" x="254.5" y="313.907">Decrypt message</text><line style="stroke:#181818;stroke-width:1.0;" x1="247.5" x2="289.5" y1="364.4221" y2="364.4221"/><line style="stroke:#181818;stroke-width:1.0;" x1="289.5" x2="289.5" y1="364.4221" y2="377.4221"/><line style="stroke:#181818;stroke-width:1.0;" x1="248.5" x2="289.5" y1="377.4221" y2="377.4221"/><polygon fill="#181818" points="258.5,373.4221,248.5,377.4221,258.5,381.4221,254.5,377.4221" style="stroke:#181818;stroke-width:1.0;"/><text fill="#000000" font-family="sans-serif" font-size="13" lengthAdjust="spacing" textLength="145" x="254.5" y="358.6131">Verify sequence number</text><!--SRC=[ROz1IyD048Nlyok6Uh7GGbMy2F7GHaLG515FNgR9c2pDpiRT3HZ4_-xeXj2MiCCoCEzzyoRiZBJaoUAMYbtbNIVbnZNEuybj_lSWZ0hzeobCInBn6n3NHuu7KzLntNGCFm3xuYTlAYD80MUfdHsCNzYwoF_ZrCu0iWnpYeIldYHO4u9nWba6CB2MrmFr2kzOs9C2L5ewY-Aau0dTZHI-RoEModsNqqrDMkUhvRDh-hEBrULymdEl7hQi8GD_TgnWbCvksOzQ5QVGum8k7pa4gbYNg6imB5Ak1UhHDVl8Nt4Em-LxZ9nJI9iG4uetzkQZFyxp2m00]--></g></svg>
